<svg xmlns="http://www.w3.org/2000/svg" width="81" height="51" viewBox="0 0 1884 1181" class="css-1n7eed8"><path d="M895 98.1c-177.6 4.6-349.6 36.7-495.5 92.6-59.8 22.9-123.3 54.6-171 85.2C113.2 350 41.7 439.4 21.6 534.5c-7.6 36.3-7.4 76.6.5 113.3C52.2 786.4 193.6 912.4 410 993.3c210.9 78.8 471 107 725.5 78.6 287.9-32 534-138 653.9-281.5 33.3-39.9 57.5-84 69.6-127.2 11.7-41.4 13.1-88.7 3.9-130.7-32.6-148.4-191.4-281.5-430.3-360.6-135.8-45.1-285.2-69.6-448.6-73.9-41.7-1.1-45-1.1-89 .1zm91.7 84.9c61.7 1.2 96.5 2.9 148.3 7.1 241.5 19.4 440.4 75 566.5 158.4 47.6 31.5 85.3 67.5 111 106 21.7 32.5 35 67.9 40 105.8 1.9 15.1 2 46.2 0 62.8-6 51.8-25.9 98.9-59.5 140.9-15.9 19.8-42.4 45-66.7 63.3-106.2 80-285.3 135-513.3 157.6-171.6 17.1-368.2 17.1-536 0-238.7-24.2-421.2-82.3-529-168.4-40.7-32.5-70.4-68.2-90-108-16.6-33.8-24.6-64.5-26.9-103-3.5-58 13.3-111.9 50.1-161.2C170.5 324.8 373 238.2 649.9 201c78.2-10.5 175.5-17.4 259.6-18.3 11-.1 22-.3 24.5-.4 2.5-.2 26.2.2 52.7.7z"></path><g fill="#D7001B"><path d="M397 442.6v56.6l-10-9.5c-17.3-16.7-38.1-28.6-59.8-34.4-8.7-2.4-11.6-2.6-27.7-2.7-19.7-.1-27.6 1.1-43.7 6.4-19.1 6.4-33.7 15.7-49.3 31.4-15.9 15.9-25.2 31-32.8 53.1-8.4 24.3-11.1 43.4-11.1 78 0 29.4 1.3 41.1 6.9 63 7.8 30.1 20 52.1 40.3 72.1 25.7 25.5 53.9 37.4 88.7 37.4 19.8 0 34.8-3.4 53.1-12.1 12.8-6.1 23.1-13.5 34.7-25.1L397 746v42h79V386h-79v56.6zm-68.5 75.5c18.3 5.6 33.5 17.2 45.3 34.3 31.2 45.1 27.7 112.4-8 152-11.2 12.4-27.4 22.1-42.1 25.3-10.4 2.2-26.9 1.3-36.4-2-30.8-10.6-53.6-39.6-62-78.7-2.5-11.8-2.5-40 0-51.8 9.5-43.7 37.3-74.8 72.5-81.2 7.5-1.4 22.8-.4 30.7 2.1zM1575 587v201h79V386h-79v201zM1011.9 452.1c-31 2-60.3 12.1-82.3 28.2-16.5 12.2-33 31.6-42.1 49.6-7.9 15.9-14 36.4-17.2 58.1-2.4 16.2-2.4 54 .1 70.4 4.4 30.1 14.2 55.9 29.3 76.8 7.4 10.2 24.7 27 34.9 33.7 30.2 20 70.2 28.4 113.5 24.1 38.1-3.9 64.8-15.6 91.1-40 15.6-14.4 27.6-34.4 33.6-56 1.7-5.8 2.9-10.6 2.8-10.7-.2-.2-15.3-4.8-33.7-10.3-18.4-5.5-34.1-10.3-35.1-10.6-1.2-.4-2.7 1.9-6.7 10.2-8.8 18.4-20.3 32-34.5 40.9-37.2 23.1-81 9.7-105.6-32.5-15-25.6-19.7-62.2-12.1-92.3 8.8-34.1 30.6-60.6 58.3-70.5 6.5-2.3 8.8-2.6 21.3-2.6 12.9-.1 14.7.1 22.4 2.8 10.5 3.6 23.8 12.3 31.8 21 5.1 5.3 11.5 14.2 16.8 23.2 1 1.6 4 .8 36.5-9.6 19.5-6.2 35.7-11.5 35.9-11.6.7-.6-5.2-16-9.4-24.4-7.7-15.3-18.4-27.3-36.4-40.6-20.7-15.4-48.8-25.2-77.1-26.9-19.8-1.2-23.8-1.2-36.1-.4zM650 453c-29.5 4.1-53.9 15-75.5 33.8-29.6 25.7-46.6 60.5-52.7 108.2-1.8 14.3-1.5 50 .6 64.3 10 69.1 47.1 114.3 106.1 129.2 18.2 4.7 30.6 5.8 58 5.2 32.9-.7 45.8-3.3 66-13.3 17.6-8.7 40.1-27 48.7-39.8 4.2-6 12.4-22.6 13-26 .3-1.7-4.7-3.8-38.7-16.7-21.4-8.2-39.3-14.8-39.6-14.9-.4 0-1 1.2-1.4 2.7-1.3 5.4-9.2 20.9-13.3 25.9-9.2 11.7-23.5 17.8-41.2 17.8-37.9-.1-64.5-26.1-70-68.5-.5-4.1-1-8.6-1-10.2V648h217.3l-.6-22.3c-1-38.3-6.9-67.2-19.2-93.4-19.7-42.1-56-69.2-104-77.9-10.5-1.8-42.8-2.7-52.5-1.4zm43.5 53c35.2 9 61.4 41.4 68.9 85.2l.7 3.8H589v-2.4c0-7.8 5.6-25.8 11.8-38.2 12.4-24.7 32.8-42.1 56.7-48.4 9.8-2.6 25.7-2.6 36 0zM1343.5 453.1c-37.2 3.8-63.4 14.5-82.5 33.8-8.1 8.1-14 17.4-21.3 33.1l-4.4 9.5 36.4 14.9c20 8.2 36.5 14.7 36.7 14.5.1-.2 1-2.4 1.9-4.9 4.9-13.2 14.8-25 24.9-29.8 9.6-4.6 16.4-5.7 33.3-5.6 41.2.4 55.4 12 55.5 45.5v9.6l-11.2 3.6c-14.2 4.6-38.3 10.4-65.3 15.7-59.8 11.7-85.5 22.1-103.5 41.7-11.1 12.1-18.4 26.9-21.5 43.8-2.6 13.4-1.7 34.9 1.9 46.8 10.2 34 35.8 57.3 72.5 65.9 12.3 2.8 41.1 3.6 54.9 1.4 25.8-4.1 51.5-16.5 73-35.4 3.4-3 6.4-5.3 6.5-5.1.2.2.9 2.4 1.6 4.9.6 2.5 3 10.2 5.2 17.2l4.1 12.8h43c34 0 42.9-.3 42.5-1.3-.3-.6-2.4-5.4-4.6-10.4-5.2-11.9-9.6-26.5-11.7-39.5-1.5-8.9-1.8-22.5-2.4-103.3-.8-99.4-.9-101.7-6.1-119-4.9-16.5-15.1-29.4-31.4-40.1-15.6-10.1-31.6-15.6-55.5-18.9-13.7-1.9-59.2-2.8-72.5-1.4zm80.5 196.1c0 32.2-2 42.4-10.6 55.1-7.1 10.4-20.8 20.2-35.2 25.2-11.1 3.9-28.1 4.6-38 1.6-19.6-5.9-32.3-22.4-32.5-42.2-.1-7.7.2-9.2 3.1-15.1 1.9-3.9 5.2-8.4 8.2-11.2 8.9-8.3 20.1-12.3 59-21.1 13.5-3 29-6.8 34.5-8.4 5.5-1.6 10.3-2.9 10.8-3 .4 0 .7 8.6.7 19.1z"></path></g></svg>