<svg version="1.1" id="Layer_1" xmlns="http://www.w3.org/2000/svg" xmlns:xlink="http://www.w3.org/1999/xlink" x="0px" y="0px"
	 width="100%" viewBox="0 0 1024 1024" enable-background="new 0 0 1024 1024" xml:space="preserve">
<path fill="#000000" opacity="1.000000" stroke="none" 
	d="
M228.197098,629.953735 
	C228.128067,640.795959 229.061508,640.273682 218.496872,640.261841 
	C205.499207,640.247253 192.501511,640.273926 179.503845,640.262634 
	C171.881927,640.256042 171.866165,640.238403 171.864960,632.394470 
	C171.853195,555.408325 171.845627,478.422150 171.840988,401.436005 
	C171.840317,390.438049 172.003220,379.437439 171.799622,368.443451 
	C171.723648,364.340973 173.061310,362.823395 177.239975,362.872589 
	C192.068527,363.047089 206.900436,362.921143 221.730957,362.954193 
	C227.681686,362.967438 228.137863,363.438385 228.144577,369.662018 
	C228.181244,403.655731 228.159866,437.649567 228.255188,471.643036 
	C228.263092,474.463837 227.311157,477.615265 230.100967,480.604187 
	C234.932648,475.531372 239.633133,470.679382 244.242950,465.742706 
	C270.963348,437.127869 297.662659,408.493347 324.368256,379.864685 
	C328.345490,375.601013 332.447845,371.444611 336.246368,367.027069 
	C338.730865,364.137726 341.516174,362.917938 345.358032,362.947357 
	C364.020111,363.090210 382.683929,363.000671 401.347046,363.028778 
	C403.282257,363.031708 405.349762,362.664856 407.037628,364.103760 
	C406.852661,366.537292 404.867889,367.517609 403.565002,368.909332 
	C371.924072,402.707764 340.234741,436.460876 308.581268,470.247620 
	C304.323578,474.792297 304.359406,475.908234 308.451508,481.386444 
	C337.657257,520.485291 366.885681,559.567261 396.075104,598.678345 
	C404.542175,610.023376 412.924957,621.431641 421.296783,632.847290 
	C422.653595,634.697510 424.312439,636.434204 424.638672,638.879761 
	C423.543488,640.767334 421.700806,640.223450 420.139435,640.227051 
	C401.309601,640.270813 382.479370,640.209900 363.649994,640.311707 
	C360.639740,640.327942 358.782776,639.179932 357.040833,636.796021 
	C328.439117,597.653076 299.762299,558.564941 271.093689,519.470825 
	C267.085114,514.004517 265.814026,513.955627 261.167145,518.882690 
	C251.340347,529.301941 241.574799,539.780762 231.617325,550.073792 
	C229.091232,552.684937 228.143219,555.405029 228.159576,558.977844 
	C228.267166,582.472290 228.204758,605.967468 228.197098,629.953735 
z"/>
<path fill="#000000" opacity="1.000000" stroke="none" 
	d="
M710.064819,425.076416 
	C680.411682,447.297089 666.648193,477.010559 670.773499,513.117981 
	C674.954895,549.716614 700.477173,581.876770 738.082336,592.852783 
	C771.372314,602.569397 801.217041,595.451721 827.216309,572.548523 
	C829.907166,570.178040 831.720703,569.934814 834.333435,572.507751 
	C843.235779,581.274597 852.220703,589.961731 861.344604,598.497070 
	C864.234436,601.200562 864.168762,602.885254 861.273315,605.672302 
	C831.254333,634.567444 795.291016,648.231689 753.976562,644.923096 
	C709.087219,641.328125 673.412720,620.124268 647.331726,583.265991 
	C630.078491,558.883362 621.195129,531.444519 621.131958,501.783020 
	C621.063965,469.870667 631.284668,440.868469 650.949829,415.550354 
	C671.949768,388.513641 699.201843,370.829041 732.631592,363.336426 
	C750.938110,359.233429 769.424866,359.032227 788.107056,362.319672 
	C816.667175,367.345306 840.695923,380.454529 861.385071,400.390625 
	C864.498962,403.391235 864.801453,405.036438 861.189941,408.122559 
	C851.825256,416.124878 842.855835,424.599762 833.916260,433.083649 
	C831.083008,435.772430 829.203613,435.557495 826.423401,432.968109 
	C793.391724,402.204071 747.899170,399.086548 710.064819,425.076416 
z"/>
<path fill="#000000" opacity="1.000000" stroke="none" 
	d="
M571.414185,383.441772 
	C575.455078,377.494354 579.325745,371.865753 583.090881,366.167419 
	C584.270691,364.381744 585.599304,363.094238 587.866089,363.100281 
	C606.858826,363.150970 625.851501,363.188812 644.844116,363.266113 
	C645.453552,363.268585 646.061401,363.653076 646.695862,363.868225 
	C647.157654,366.526672 645.232666,367.976318 644.094604,369.645569 
	C612.941589,415.339691 581.759827,461.014252 550.485840,506.625549 
	C548.208191,509.947357 547.170654,513.246582 547.180115,517.281555 
	C547.270935,555.937500 547.210144,594.593933 547.189026,633.250183 
	C547.185242,640.228027 547.177124,640.237244 540.323120,640.240662 
	C526.160278,640.247803 511.995972,640.132568 497.835449,640.315918 
	C493.831268,640.367798 492.311096,639.332214 492.388885,635.006836 
	C492.670074,619.368958 492.617828,603.723572 492.554321,588.081543 
	C492.456970,564.103943 492.218048,540.126831 492.117096,516.149231 
	C492.103912,513.021301 491.306061,510.420563 489.439484,507.830750 
	C461.777985,469.451874 434.287689,430.949158 406.503784,392.659424 
	C403.252563,388.178894 403.400940,385.574097 407.409088,381.887054 
	C412.665405,377.051849 417.333069,371.562439 422.104218,366.220703 
	C424.175293,363.901886 426.559387,362.996094 429.588501,363.025696 
	C437.585358,363.103851 445.585693,363.150360 453.580200,362.988647 
	C456.831543,362.922852 458.693054,364.335724 460.436066,366.942352 
	C479.325562,395.191101 498.313538,423.373993 517.296814,451.559937 
	C520.263855,455.965424 521.803101,455.960632 524.938049,451.388397 
	C540.387512,428.855804 555.786438,406.288635 571.414185,383.441772 
z"/>
<path fill="#000000" opacity="1.000000" stroke="none" 
	d="
M739.142090,494.729675 
	C749.076050,504.145630 758.876953,513.182495 768.291626,522.605347 
	C771.496765,525.813232 773.390259,525.392700 776.370972,522.512634 
	C797.572327,502.027527 818.905579,481.678894 840.205322,461.295654 
	C846.582397,455.192841 852.897949,449.021454 859.405884,443.060791 
	C864.672485,438.237213 870.881287,436.319214 877.868164,438.659363 
	C889.966064,442.711365 893.381775,456.544739 884.225037,465.443237 
	C866.906067,482.273895 849.326233,498.836426 831.830688,515.485107 
	C816.388611,530.179688 801.016479,544.950134 785.413391,559.472168 
	C776.685730,567.595032 766.304626,567.113586 757.844788,558.809631 
	C744.412415,545.624817 730.930359,532.490540 717.505432,519.298096 
	C709.685669,511.613678 708.663330,503.464813 714.505798,496.261841 
	C720.060730,489.413391 730.407227,488.665527 739.142090,494.729675 
z"/>
</svg>